<?xml version="1.0" encoding="UTF-8" standalone="no"?>
<!-- Created with Inkscape (http://www.inkscape.org/) -->

<svg
   xmlns:dc="http://purl.org/dc/elements/1.1/"
   xmlns:cc="http://creativecommons.org/ns#"
   xmlns:rdf="http://www.w3.org/1999/02/22-rdf-syntax-ns#"
   xmlns:svg="http://www.w3.org/2000/svg"
   xmlns="http://www.w3.org/2000/svg"
   xmlns:xlink="http://www.w3.org/1999/xlink"
   xmlns:sodipodi="http://sodipodi.sourceforge.net/DTD/sodipodi-0.dtd"
   xmlns:inkscape="http://www.inkscape.org/namespaces/inkscape"
   sodipodi:docname="download.svg"
   inkscape:version="0.92.4 (5da689c313, 2019-01-14)"
   version="1.1"
   id="svg2"
   viewBox="0 0 1280 720.00001"
   height="720"
   width="1280">
  <sodipodi:namedview
     inkscape:window-maximized="1"
     inkscape:window-y="-11"
     inkscape:window-x="-11"
     inkscape:window-height="1046"
     inkscape:window-width="1920"
     units="px"
     showgrid="false"
     inkscape:current-layer="svg2"
     inkscape:document-units="px"
     inkscape:cy="-83.148101"
     inkscape:cx="8117.6489"
     inkscape:zoom="0.1064481"
     inkscape:pageshadow="2"
     inkscape:pageopacity="0.0"
     borderopacity="1.0"
     bordercolor="#666666"
     pagecolor="#ffffff"
     id="base"
     inkscape:snap-bbox="true"
     inkscape:bbox-paths="true"
     inkscape:bbox-nodes="true"
     inkscape:snap-bbox-edge-midpoints="true"
     inkscape:snap-bbox-midpoints="true"
     inkscape:snap-global="false" />
  <defs
     id="defs4">
    <inkscape:path-effect
       effect="spiro"
       id="path-effect5510"
       is_visible="true" />
    <linearGradient
       inkscape:collect="always"
       id="linearGradient4197">
      <stop
         style="stop-color:#91eef5;stop-opacity:1"
         offset="0"
         id="stop4199" />
      <stop
         style="stop-color:#43c1d8;stop-opacity:1"
         offset="1"
         id="stop4201" />
    </linearGradient>
    <radialGradient
       inkscape:collect="always"
       xlink:href="#linearGradient4197"
       id="radialGradient4203"
       cx="-58.422489"
       cy="-1919.5504"
       fx="-58.422489"
       fy="-1919.5504"
       r="320"
       gradientTransform="matrix(0.88898161,-0.75756802,0.8769674,1.0290929,1826.2335,360.11094)"
       gradientUnits="userSpaceOnUse" />
  </defs>
  <metadata
     id="metadata7">
    <rdf:RDF>
      <cc:Work
         rdf:about="">
        <dc:format>image/svg+xml</dc:format>
        <dc:type
           rdf:resource="http://purl.org/dc/dcmitype/StillImage" />
        <dc:title />
      </cc:Work>
    </rdf:RDF>
  </metadata>
  <g
     inkscape:label="Layer 1"
     inkscape:groupmode="layer"
     id="layer1"
     transform="translate(0,-332.36216)" />
  <path
     style="fill:none;fill-rule:evenodd;stroke:#000000;stroke-width:2.00671625px;stroke-linecap:butt;stroke-linejoin:miter;stroke-opacity:1"
     d="M -10.837105,399.91531 C -10.837105,399.91531 360.95089,618.41855 633.74796,640.65452 933.27973,665.06975 1194.6484,497.3518 1498.1559,507.62844 1727.0472,515.37863 1898.3125,665.99098 2109.7652,650.73232 2479.5945,624.04507 2737.3742,278.22805 3107.1744,251.27988 3425.2674,283.59165 3926.4207,433.05255 4489.1112,512.4571 4597.6107,527.76814 4722.879,469.1338 4833.3691,482.03476 4868.8117,486.17313 4939.2658,567.09253 4974.475,571.28218 5639.6416,650.43241 6256.8855,671.72797 6588.8994,674.43736 6943.2645,673.42027 7277.3722,403.89083 7743.1187,388.41574 8023.5431,379.09821 8167.268,733.32913 8445.1661,682.98562 9142.1521,556.72082 9382.633,653.43022 9660.1193,642.80088 9803.5716,637.30582 10351.968,200.05637 10670.53,200.2844 10999.895,200.52023 11134.798,-19.470908 11345.368,0.88878878 11664.594,31.754353 12026.765,223.6594 12296.609,161.811 12838.032,37.716588 12837.788,533.42456 12847.221,532.71357"
     id="path4140"
     inkscape:connector-curvature="0"
     sodipodi:nodetypes="caaacssscssssssc" />
  <path
     style="opacity:1;fill:#cccccc;fill-opacity:0.81308414;stroke:#666666;stroke-width:1;stroke-linecap:round;stroke-linejoin:round;stroke-miterlimit:4;stroke-dasharray:none;stroke-dashoffset:2.5;stroke-opacity:1"
     d="M 64.303133,-374.84559 173.3996,-374.84559 C 190.18834,-374.84559 205.75684,-361.20379 203.70418,-344.54099 L 186.53159,-205.13999 C 184.47892,-188.47719 173.01575,-174.83539 156.22701,-174.83539 L 81.475723,-174.83539 C 64.686993,-174.83539 53.223813,-188.47719 51.171153,-205.13999 L 33.998557,-344.54099 C 31.945895,-361.20379 47.514403,-374.84559 64.303133,-374.84559 Z"
     id="rect4153"
     inkscape:connector-curvature="0"
     sodipodi:nodetypes="sssssssss"
     inkscape:export-filename="/home/yannick/Desktop/phaser3-matter-car-on-curved-terrain/src/assets/img/gas.png"
     inkscape:export-xdpi="90"
     inkscape:export-ydpi="90" />
  <path
     sodipodi:nodetypes="cssscssscssssssc"
     inkscape:connector-curvature="0"
     id="path3335"
     d="M 11617.063,3528.4898 C 11621.249,3524.7808 11611.68,3447.0568 11669.83,3358.5231 11865.52,3060.5827 11575.859,3311.6521 11343.718,3201.6923 11139.351,3104.8886 10961.733,3006.1663 10729.49,2913.6747 10396.606,2781.1024 10101.548,2541.1218 9731.5518,2514.1701 9413.2902,2546.4861 8911.8712,2695.9665 8348.8826,2775.3815 8240.3255,2790.6945 8114.9908,2732.0525 8004.4422,2744.9552 7968.9808,2749.094 7713.9634,2870.0174 7678.7355,2874.2076 7013.2163,2953.3682 6587.2685,2808.9798 6247.9814,2937.3829 5829.5541,3056.3456 5559.1438,2666.801 5093.1504,2651.3239 4812.5774,2642.0051 4668.7763,2996.2823 4390.7309,2945.9322 3693.3755,2819.6509 3452.7672,2916.373 3175.1339,2905.7423 3031.6055,2900.2465 2546.7924,2588.6333 2228.0616,2588.8613 1898.5226,2589.0972 1699.6737,2243.384 1488.9922,2263.7464 1169.5965,2294.616 807.23392,2486.5461 537.2465,2424.6896 -4.4640133,2300.579 -4.2193389,2796.3516 -13.657313,2795.6406"
     style="fill:none;fill-rule:evenodd;stroke:#000000;stroke-width:2.00737906px;stroke-linecap:butt;stroke-linejoin:miter;stroke-opacity:1" />
  <rect
     style="opacity:1;fill:#cccccc;fill-opacity:0.81308414;stroke:#666666;stroke-width:0.76492667;stroke-linecap:round;stroke-linejoin:round;stroke-miterlimit:4;stroke-dasharray:none;stroke-dashoffset:2.5;stroke-opacity:1"
     id="rect3338"
     width="188.12344"
     height="60.377132"
     x="308.8869"
     y="-286.81479"
     ry="22.089211"
     inkscape:export-filename="/home/yannick/Desktop/phaser3-matter-car-on-curved-terrain/src/assets/img/restart-btn.png"
     inkscape:export-xdpi="90"
     inkscape:export-ydpi="90" />
  <text
     xml:space="preserve"
     style="font-style:normal;font-weight:normal;font-size:30px;line-height:125%;font-family:sans-serif;letter-spacing:0px;word-spacing:0px;fill:#000000;fill-opacity:1;stroke:none;stroke-width:1px;stroke-linecap:butt;stroke-linejoin:miter;stroke-opacity:1"
     x="327.28943"
     y="-245.70583"
     id="text3340"
     inkscape:export-filename="/home/yannick/Desktop/phaser3-matter-car-on-curved-terrain/src/assets/img/restart-btn.png"
     inkscape:export-xdpi="90"
     inkscape:export-ydpi="90"><tspan
       sodipodi:role="line"
       id="tspan3342"
       x="327.28943"
       y="-245.70583"
       style="-inkscape-font-specification:'sans-serif Bold';font-family:sans-serif;font-weight:bold;font-style:normal;font-stretch:normal;font-variant:normal">RESTART</tspan></text>
  <rect
     style="opacity:1;fill:#685339;fill-opacity:1;stroke:none;stroke-width:1;stroke-linecap:round;stroke-linejoin:round;stroke-miterlimit:4;stroke-dasharray:none;stroke-dashoffset:2.5;stroke-opacity:1"
     id="rect3347"
     width="1280"
     height="720"
     x="-107.0168"
     y="-1445.7142"
     ry="0"
     inkscape:export-filename="/home/yannick/Desktop/phaser3-matter-car-on-curved-terrain/src/assets/img/wholes.png"
     inkscape:export-xdpi="90"
     inkscape:export-ydpi="90" />
  <g
     id="g4161"
     transform="translate(205.85273,-1265.8054)"
     inkscape:export-filename="/home/yannick/Desktop/phaser3-matter-car-on-curved-terrain/src/assets/img/wholes.png"
     inkscape:export-xdpi="90"
     inkscape:export-ydpi="90">
    <circle
       r="50"
       cy="433.79077"
       cx="-209.28571"
       id="circle4153"
       style="opacity:1;fill:#6e563a;fill-opacity:1;stroke:none;stroke-width:1;stroke-linecap:round;stroke-linejoin:round;stroke-miterlimit:4;stroke-dasharray:none;stroke-dashoffset:2.5;stroke-opacity:1" />
    <path
       id="circle4158"
       d="M -209.28516,383.79102 A 50,50 0 0 0 -244.22852,398.03906 50,50 0 0 1 -224.4375,393.89258 50,50 0 0 1 -174.4375,443.89258 50,50 0 0 1 -189.49609,479.64453 50,50 0 0 0 -159.28516,433.79102 50,50 0 0 0 -209.28516,383.79102 Z"
       style="opacity:1;fill:#57462a;fill-opacity:1;stroke:none;stroke-width:1;stroke-linecap:round;stroke-linejoin:round;stroke-miterlimit:4;stroke-dasharray:none;stroke-dashoffset:2.5;stroke-opacity:1"
       inkscape:connector-curvature="0" />
  </g>
  <g
     transform="matrix(0.84285714,0,0,0.84285714,385.10783,-1316.924)"
     id="g4165"
     inkscape:export-filename="/home/yannick/Desktop/phaser3-matter-car-on-curved-terrain/src/assets/img/wholes.png"
     inkscape:export-xdpi="90"
     inkscape:export-ydpi="90">
    <circle
       style="opacity:1;fill:#6e563a;fill-opacity:1;stroke:none;stroke-width:1;stroke-linecap:round;stroke-linejoin:round;stroke-miterlimit:4;stroke-dasharray:none;stroke-dashoffset:2.5;stroke-opacity:1"
       id="circle4167"
       cx="-209.28571"
       cy="433.79077"
       r="50" />
    <path
       inkscape:connector-curvature="0"
       style="opacity:1;fill:#57462a;fill-opacity:1;stroke:none;stroke-width:1;stroke-linecap:round;stroke-linejoin:round;stroke-miterlimit:4;stroke-dasharray:none;stroke-dashoffset:2.5;stroke-opacity:1"
       d="M -209.28516,383.79102 A 50,50 0 0 0 -244.22852,398.03906 50,50 0 0 1 -224.4375,393.89258 50,50 0 0 1 -174.4375,443.89258 50,50 0 0 1 -189.49609,479.64453 50,50 0 0 0 -159.28516,433.79102 50,50 0 0 0 -209.28516,383.79102 Z"
       id="path4169" />
  </g>
  <g
     id="g4171"
     transform="translate(278.70993,-1731.5197)"
     inkscape:export-filename="/home/yannick/Desktop/phaser3-matter-car-on-curved-terrain/src/assets/img/wholes.png"
     inkscape:export-xdpi="90"
     inkscape:export-ydpi="90">
    <circle
       r="50"
       cy="433.79077"
       cx="-209.28571"
       id="circle4173"
       style="opacity:1;fill:#6e563a;fill-opacity:1;stroke:none;stroke-width:1;stroke-linecap:round;stroke-linejoin:round;stroke-miterlimit:4;stroke-dasharray:none;stroke-dashoffset:2.5;stroke-opacity:1" />
    <path
       id="path4175"
       d="M -209.28516,383.79102 A 50,50 0 0 0 -244.22852,398.03906 50,50 0 0 1 -224.4375,393.89258 50,50 0 0 1 -174.4375,443.89258 50,50 0 0 1 -189.49609,479.64453 50,50 0 0 0 -159.28516,433.79102 50,50 0 0 0 -209.28516,383.79102 Z"
       style="opacity:1;fill:#57462a;fill-opacity:1;stroke:none;stroke-width:1;stroke-linecap:round;stroke-linejoin:round;stroke-miterlimit:4;stroke-dasharray:none;stroke-dashoffset:2.5;stroke-opacity:1"
       inkscape:connector-curvature="0" />
  </g>
  <g
     transform="translate(787.28133,-1758.6625)"
     id="g4177"
     inkscape:export-filename="/home/yannick/Desktop/phaser3-matter-car-on-curved-terrain/src/assets/img/wholes.png"
     inkscape:export-xdpi="90"
     inkscape:export-ydpi="90">
    <circle
       style="opacity:1;fill:#6e563a;fill-opacity:1;stroke:none;stroke-width:1;stroke-linecap:round;stroke-linejoin:round;stroke-miterlimit:4;stroke-dasharray:none;stroke-dashoffset:2.5;stroke-opacity:1"
       id="circle4179"
       cx="-209.28571"
       cy="433.79077"
       r="50" />
    <path
       inkscape:connector-curvature="0"
       style="opacity:1;fill:#57462a;fill-opacity:1;stroke:none;stroke-width:1;stroke-linecap:round;stroke-linejoin:round;stroke-miterlimit:4;stroke-dasharray:none;stroke-dashoffset:2.5;stroke-opacity:1"
       d="M -209.28516,383.79102 A 50,50 0 0 0 -244.22852,398.03906 50,50 0 0 1 -224.4375,393.89258 50,50 0 0 1 -174.4375,443.89258 50,50 0 0 1 -189.49609,479.64453 50,50 0 0 0 -159.28516,433.79102 50,50 0 0 0 -209.28516,383.79102 Z"
       id="path4181" />
  </g>
  <g
     id="g4183"
     transform="translate(670.13843,-1437.2339)"
     inkscape:export-filename="/home/yannick/Desktop/phaser3-matter-car-on-curved-terrain/src/assets/img/wholes.png"
     inkscape:export-xdpi="90"
     inkscape:export-ydpi="90">
    <circle
       r="50"
       cy="433.79077"
       cx="-209.28571"
       id="circle4185"
       style="opacity:1;fill:#6e563a;fill-opacity:1;stroke:none;stroke-width:1;stroke-linecap:round;stroke-linejoin:round;stroke-miterlimit:4;stroke-dasharray:none;stroke-dashoffset:2.5;stroke-opacity:1" />
    <path
       id="path4187"
       d="M -209.28516,383.79102 A 50,50 0 0 0 -244.22852,398.03906 50,50 0 0 1 -224.4375,393.89258 50,50 0 0 1 -174.4375,443.89258 50,50 0 0 1 -189.49609,479.64453 50,50 0 0 0 -159.28516,433.79102 50,50 0 0 0 -209.28516,383.79102 Z"
       style="opacity:1;fill:#57462a;fill-opacity:1;stroke:none;stroke-width:1;stroke-linecap:round;stroke-linejoin:round;stroke-miterlimit:4;stroke-dasharray:none;stroke-dashoffset:2.5;stroke-opacity:1"
       inkscape:connector-curvature="0" />
  </g>
  <g
     transform="translate(1072.9956,-1314.3768)"
     id="g4189"
     inkscape:export-filename="/home/yannick/Desktop/phaser3-matter-car-on-curved-terrain/src/assets/img/wholes.png"
     inkscape:export-xdpi="90"
     inkscape:export-ydpi="90">
    <circle
       style="opacity:1;fill:#6e563a;fill-opacity:1;stroke:none;stroke-width:1;stroke-linecap:round;stroke-linejoin:round;stroke-miterlimit:4;stroke-dasharray:none;stroke-dashoffset:2.5;stroke-opacity:1"
       id="circle4191"
       cx="-209.28571"
       cy="433.79077"
       r="50" />
    <path
       inkscape:connector-curvature="0"
       style="opacity:1;fill:#57462a;fill-opacity:1;stroke:none;stroke-width:1;stroke-linecap:round;stroke-linejoin:round;stroke-miterlimit:4;stroke-dasharray:none;stroke-dashoffset:2.5;stroke-opacity:1"
       d="M -209.28516,383.79102 A 50,50 0 0 0 -244.22852,398.03906 50,50 0 0 1 -224.4375,393.89258 50,50 0 0 1 -174.4375,443.89258 50,50 0 0 1 -189.49609,479.64453 50,50 0 0 0 -159.28516,433.79102 50,50 0 0 0 -209.28516,383.79102 Z"
       id="path4193" />
  </g>
  <g
     id="g4195"
     transform="translate(1105.8527,-1531.5197)"
     inkscape:export-filename="/home/yannick/Desktop/phaser3-matter-car-on-curved-terrain/src/assets/img/wholes.png"
     inkscape:export-xdpi="90"
     inkscape:export-ydpi="90">
    <circle
       r="50"
       cy="433.79077"
       cx="-209.28571"
       id="circle4197"
       style="opacity:1;fill:#6e563a;fill-opacity:1;stroke:none;stroke-width:1;stroke-linecap:round;stroke-linejoin:round;stroke-miterlimit:4;stroke-dasharray:none;stroke-dashoffset:2.5;stroke-opacity:1" />
    <path
       id="path4199"
       d="M -209.28516,383.79102 A 50,50 0 0 0 -244.22852,398.03906 50,50 0 0 1 -224.4375,393.89258 50,50 0 0 1 -174.4375,443.89258 50,50 0 0 1 -189.49609,479.64453 50,50 0 0 0 -159.28516,433.79102 50,50 0 0 0 -209.28516,383.79102 Z"
       style="opacity:1;fill:#57462a;fill-opacity:1;stroke:none;stroke-width:1;stroke-linecap:round;stroke-linejoin:round;stroke-miterlimit:4;stroke-dasharray:none;stroke-dashoffset:2.5;stroke-opacity:1"
       inkscape:connector-curvature="0" />
  </g>
  <g
     id="g4201"
     transform="matrix(0.84285714,0,0,0.84285714,252.25073,-1438.3525)"
     inkscape:export-filename="/home/yannick/Desktop/phaser3-matter-car-on-curved-terrain/src/assets/img/wholes.png"
     inkscape:export-xdpi="90"
     inkscape:export-ydpi="90">
    <circle
       r="50"
       cy="433.79077"
       cx="-209.28571"
       id="circle4203"
       style="opacity:1;fill:#6e563a;fill-opacity:1;stroke:none;stroke-width:1;stroke-linecap:round;stroke-linejoin:round;stroke-miterlimit:4;stroke-dasharray:none;stroke-dashoffset:2.5;stroke-opacity:1" />
    <path
       id="path4205"
       d="M -209.28516,383.79102 A 50,50 0 0 0 -244.22852,398.03906 50,50 0 0 1 -224.4375,393.89258 50,50 0 0 1 -174.4375,443.89258 50,50 0 0 1 -189.49609,479.64453 50,50 0 0 0 -159.28516,433.79102 50,50 0 0 0 -209.28516,383.79102 Z"
       style="opacity:1;fill:#57462a;fill-opacity:1;stroke:none;stroke-width:1;stroke-linecap:round;stroke-linejoin:round;stroke-miterlimit:4;stroke-dasharray:none;stroke-dashoffset:2.5;stroke-opacity:1"
       inkscape:connector-curvature="0" />
  </g>
  <g
     transform="matrix(0.84285714,0,0,0.84285714,483.67923,-1561.2097)"
     id="g4207"
     inkscape:export-filename="/home/yannick/Desktop/phaser3-matter-car-on-curved-terrain/src/assets/img/wholes.png"
     inkscape:export-xdpi="90"
     inkscape:export-ydpi="90">
    <circle
       style="opacity:1;fill:#6e563a;fill-opacity:1;stroke:none;stroke-width:1;stroke-linecap:round;stroke-linejoin:round;stroke-miterlimit:4;stroke-dasharray:none;stroke-dashoffset:2.5;stroke-opacity:1"
       id="circle4209"
       cx="-209.28571"
       cy="433.79077"
       r="50" />
    <path
       inkscape:connector-curvature="0"
       style="opacity:1;fill:#57462a;fill-opacity:1;stroke:none;stroke-width:1;stroke-linecap:round;stroke-linejoin:round;stroke-miterlimit:4;stroke-dasharray:none;stroke-dashoffset:2.5;stroke-opacity:1"
       d="M -209.28516,383.79102 A 50,50 0 0 0 -244.22852,398.03906 50,50 0 0 1 -224.4375,393.89258 50,50 0 0 1 -174.4375,443.89258 50,50 0 0 1 -189.49609,479.64453 50,50 0 0 0 -159.28516,433.79102 50,50 0 0 0 -209.28516,383.79102 Z"
       id="path4211" />
  </g>
  <g
     id="g4213"
     transform="matrix(0.84285714,0,0,0.84285714,827.96493,-1511.2097)"
     inkscape:export-filename="/home/yannick/Desktop/phaser3-matter-car-on-curved-terrain/src/assets/img/wholes.png"
     inkscape:export-xdpi="90"
     inkscape:export-ydpi="90">
    <circle
       r="50"
       cy="433.79077"
       cx="-209.28571"
       id="circle4215"
       style="opacity:1;fill:#6e563a;fill-opacity:1;stroke:none;stroke-width:1;stroke-linecap:round;stroke-linejoin:round;stroke-miterlimit:4;stroke-dasharray:none;stroke-dashoffset:2.5;stroke-opacity:1" />
    <path
       id="path4217"
       d="M -209.28516,383.79102 A 50,50 0 0 0 -244.22852,398.03906 50,50 0 0 1 -224.4375,393.89258 50,50 0 0 1 -174.4375,443.89258 50,50 0 0 1 -189.49609,479.64453 50,50 0 0 0 -159.28516,433.79102 50,50 0 0 0 -209.28516,383.79102 Z"
       style="opacity:1;fill:#57462a;fill-opacity:1;stroke:none;stroke-width:1;stroke-linecap:round;stroke-linejoin:round;stroke-miterlimit:4;stroke-dasharray:none;stroke-dashoffset:2.5;stroke-opacity:1"
       inkscape:connector-curvature="0" />
  </g>
  <g
     transform="matrix(0.84285714,0,0,0.84285714,1152.2507,-1725.4954)"
     id="g4219"
     inkscape:export-filename="/home/yannick/Desktop/phaser3-matter-car-on-curved-terrain/src/assets/img/wholes.png"
     inkscape:export-xdpi="90"
     inkscape:export-ydpi="90">
    <circle
       style="opacity:1;fill:#6e563a;fill-opacity:1;stroke:none;stroke-width:1;stroke-linecap:round;stroke-linejoin:round;stroke-miterlimit:4;stroke-dasharray:none;stroke-dashoffset:2.5;stroke-opacity:1"
       id="circle4221"
       cx="-209.28571"
       cy="433.79077"
       r="50" />
    <path
       inkscape:connector-curvature="0"
       style="opacity:1;fill:#57462a;fill-opacity:1;stroke:none;stroke-width:1;stroke-linecap:round;stroke-linejoin:round;stroke-miterlimit:4;stroke-dasharray:none;stroke-dashoffset:2.5;stroke-opacity:1"
       d="M -209.28516,383.79102 A 50,50 0 0 0 -244.22852,398.03906 50,50 0 0 1 -224.4375,393.89258 50,50 0 0 1 -174.4375,443.89258 50,50 0 0 1 -189.49609,479.64453 50,50 0 0 0 -159.28516,433.79102 50,50 0 0 0 -209.28516,383.79102 Z"
       id="path4223" />
  </g>
  <g
     id="g4225"
     transform="matrix(0.70000078,0,0,0.70000078,793.78153,-1163.5257)"
     inkscape:export-filename="/home/yannick/Desktop/phaser3-matter-car-on-curved-terrain/src/assets/img/wholes.png"
     inkscape:export-xdpi="90"
     inkscape:export-ydpi="90">
    <circle
       r="50"
       cy="433.79077"
       cx="-209.28571"
       id="circle4227"
       style="opacity:1;fill:#6e563a;fill-opacity:1;stroke:none;stroke-width:1;stroke-linecap:round;stroke-linejoin:round;stroke-miterlimit:4;stroke-dasharray:none;stroke-dashoffset:2.5;stroke-opacity:1" />
    <path
       id="path4229"
       d="M -209.28516,383.79102 A 50,50 0 0 0 -244.22852,398.03906 50,50 0 0 1 -224.4375,393.89258 50,50 0 0 1 -174.4375,443.89258 50,50 0 0 1 -189.49609,479.64453 50,50 0 0 0 -159.28516,433.79102 50,50 0 0 0 -209.28516,383.79102 Z"
       style="opacity:1;fill:#57462a;fill-opacity:1;stroke:none;stroke-width:1;stroke-linecap:round;stroke-linejoin:round;stroke-miterlimit:4;stroke-dasharray:none;stroke-dashoffset:2.5;stroke-opacity:1"
       inkscape:connector-curvature="0" />
  </g>
  <g
     transform="matrix(0.70000078,0,0,0.70000078,1210.9244,-1132.0971)"
     id="g4231"
     inkscape:export-filename="/home/yannick/Desktop/phaser3-matter-car-on-curved-terrain/src/assets/img/wholes.png"
     inkscape:export-xdpi="90"
     inkscape:export-ydpi="90">
    <circle
       style="opacity:1;fill:#6e563a;fill-opacity:1;stroke:none;stroke-width:1;stroke-linecap:round;stroke-linejoin:round;stroke-miterlimit:4;stroke-dasharray:none;stroke-dashoffset:2.5;stroke-opacity:1"
       id="circle4233"
       cx="-209.28571"
       cy="433.79077"
       r="50" />
    <path
       inkscape:connector-curvature="0"
       style="opacity:1;fill:#57462a;fill-opacity:1;stroke:none;stroke-width:1;stroke-linecap:round;stroke-linejoin:round;stroke-miterlimit:4;stroke-dasharray:none;stroke-dashoffset:2.5;stroke-opacity:1"
       d="M -209.28516,383.79102 A 50,50 0 0 0 -244.22852,398.03906 50,50 0 0 1 -224.4375,393.89258 50,50 0 0 1 -174.4375,443.89258 50,50 0 0 1 -189.49609,479.64453 50,50 0 0 0 -159.28516,433.79102 50,50 0 0 0 -209.28516,383.79102 Z"
       id="path4235" />
  </g>
  <g
     id="g4237"
     transform="matrix(0.70000078,0,0,0.70000078,1008.0672,-1556.3828)"
     inkscape:export-filename="/home/yannick/Desktop/phaser3-matter-car-on-curved-terrain/src/assets/img/wholes.png"
     inkscape:export-xdpi="90"
     inkscape:export-ydpi="90">
    <circle
       r="50"
       cy="433.79077"
       cx="-209.28571"
       id="circle4239"
       style="opacity:1;fill:#6e563a;fill-opacity:1;stroke:none;stroke-width:1;stroke-linecap:round;stroke-linejoin:round;stroke-miterlimit:4;stroke-dasharray:none;stroke-dashoffset:2.5;stroke-opacity:1" />
    <path
       id="path4241"
       d="M -209.28516,383.79102 A 50,50 0 0 0 -244.22852,398.03906 50,50 0 0 1 -224.4375,393.89258 50,50 0 0 1 -174.4375,443.89258 50,50 0 0 1 -189.49609,479.64453 50,50 0 0 0 -159.28516,433.79102 50,50 0 0 0 -209.28516,383.79102 Z"
       style="opacity:1;fill:#57462a;fill-opacity:1;stroke:none;stroke-width:1;stroke-linecap:round;stroke-linejoin:round;stroke-miterlimit:4;stroke-dasharray:none;stroke-dashoffset:2.5;stroke-opacity:1"
       inkscape:connector-curvature="0" />
  </g>
  <g
     transform="matrix(0.70000078,0,0,0.70000078,1198.0672,-1512.0971)"
     id="g4243"
     inkscape:export-filename="/home/yannick/Desktop/phaser3-matter-car-on-curved-terrain/src/assets/img/wholes.png"
     inkscape:export-xdpi="90"
     inkscape:export-ydpi="90">
    <circle
       style="opacity:1;fill:#6e563a;fill-opacity:1;stroke:none;stroke-width:1;stroke-linecap:round;stroke-linejoin:round;stroke-miterlimit:4;stroke-dasharray:none;stroke-dashoffset:2.5;stroke-opacity:1"
       id="circle4245"
       cx="-209.28571"
       cy="433.79077"
       r="50" />
    <path
       inkscape:connector-curvature="0"
       style="opacity:1;fill:#57462a;fill-opacity:1;stroke:none;stroke-width:1;stroke-linecap:round;stroke-linejoin:round;stroke-miterlimit:4;stroke-dasharray:none;stroke-dashoffset:2.5;stroke-opacity:1"
       d="M -209.28516,383.79102 A 50,50 0 0 0 -244.22852,398.03906 50,50 0 0 1 -224.4375,393.89258 50,50 0 0 1 -174.4375,443.89258 50,50 0 0 1 -189.49609,479.64453 50,50 0 0 0 -159.28516,433.79102 50,50 0 0 0 -209.28516,383.79102 Z"
       id="path4247" />
  </g>
  <g
     id="g4249"
     transform="matrix(0.70000078,0,0,0.70000078,419.49583,-1649.24)"
     inkscape:export-filename="/home/yannick/Desktop/phaser3-matter-car-on-curved-terrain/src/assets/img/wholes.png"
     inkscape:export-xdpi="90"
     inkscape:export-ydpi="90">
    <circle
       r="50"
       cy="433.79077"
       cx="-209.28571"
       id="circle4251"
       style="opacity:1;fill:#6e563a;fill-opacity:1;stroke:none;stroke-width:1;stroke-linecap:round;stroke-linejoin:round;stroke-miterlimit:4;stroke-dasharray:none;stroke-dashoffset:2.5;stroke-opacity:1" />
    <path
       id="path4253"
       d="M -209.28516,383.79102 A 50,50 0 0 0 -244.22852,398.03906 50,50 0 0 1 -224.4375,393.89258 50,50 0 0 1 -174.4375,443.89258 50,50 0 0 1 -189.49609,479.64453 50,50 0 0 0 -159.28516,433.79102 50,50 0 0 0 -209.28516,383.79102 Z"
       style="opacity:1;fill:#57462a;fill-opacity:1;stroke:none;stroke-width:1;stroke-linecap:round;stroke-linejoin:round;stroke-miterlimit:4;stroke-dasharray:none;stroke-dashoffset:2.5;stroke-opacity:1"
       inkscape:connector-curvature="0" />
  </g>
  <g
     transform="matrix(0.70000078,0,0,0.70000078,473.78153,-1173.5257)"
     id="g4255"
     inkscape:export-filename="/home/yannick/Desktop/phaser3-matter-car-on-curved-terrain/src/assets/img/wholes.png"
     inkscape:export-xdpi="90"
     inkscape:export-ydpi="90">
    <circle
       style="opacity:1;fill:#6e563a;fill-opacity:1;stroke:none;stroke-width:1;stroke-linecap:round;stroke-linejoin:round;stroke-miterlimit:4;stroke-dasharray:none;stroke-dashoffset:2.5;stroke-opacity:1"
       id="circle4257"
       cx="-209.28571"
       cy="433.79077"
       r="50" />
    <path
       inkscape:connector-curvature="0"
       style="opacity:1;fill:#57462a;fill-opacity:1;stroke:none;stroke-width:1;stroke-linecap:round;stroke-linejoin:round;stroke-miterlimit:4;stroke-dasharray:none;stroke-dashoffset:2.5;stroke-opacity:1"
       d="M -209.28516,383.79102 A 50,50 0 0 0 -244.22852,398.03906 50,50 0 0 1 -224.4375,393.89258 50,50 0 0 1 -174.4375,443.89258 50,50 0 0 1 -189.49609,479.64453 50,50 0 0 0 -159.28516,433.79102 50,50 0 0 0 -209.28516,383.79102 Z"
       id="path4259" />
  </g>
  <g
     transform="matrix(0.70000078,0,0,0.70000078,109.49583,-1472.0971)"
     id="g4261"
     inkscape:export-filename="/home/yannick/Desktop/phaser3-matter-car-on-curved-terrain/src/assets/img/wholes.png"
     inkscape:export-xdpi="90"
     inkscape:export-ydpi="90">
    <circle
       style="opacity:1;fill:#6e563a;fill-opacity:1;stroke:none;stroke-width:1;stroke-linecap:round;stroke-linejoin:round;stroke-miterlimit:4;stroke-dasharray:none;stroke-dashoffset:2.5;stroke-opacity:1"
       id="circle4263"
       cx="-209.28571"
       cy="433.79077"
       r="50" />
    <path
       inkscape:connector-curvature="0"
       style="opacity:1;fill:#57462a;fill-opacity:1;stroke:none;stroke-width:1;stroke-linecap:round;stroke-linejoin:round;stroke-miterlimit:4;stroke-dasharray:none;stroke-dashoffset:2.5;stroke-opacity:1"
       d="M -209.28516,383.79102 A 50,50 0 0 0 -244.22852,398.03906 50,50 0 0 1 -224.4375,393.89258 50,50 0 0 1 -174.4375,443.89258 50,50 0 0 1 -189.49609,479.64453 50,50 0 0 0 -159.28516,433.79102 50,50 0 0 0 -209.28516,383.79102 Z"
       id="path4265" />
  </g>
  <path
     style="fill:#adea53;fill-opacity:1;fill-rule:evenodd;stroke:#81c919;stroke-width:1px;stroke-linecap:round;stroke-linejoin:round;stroke-opacity:1"
     d="M 580.80661,-253.55578 C 579.58821,-257.50487 571.62971,-260.10458 571.62971,-260.10458 571.62971,-260.10458 578.89661,-260.04584 582.92421,-258.5816 588.63301,-256.5062 576.14741,-272.44066 576.14741,-272.44066 576.14741,-272.44066 586.75131,-267.01177 591.67771,-260.71378 596.60391,-254.41578 593.23061,-275.02973 593.23061,-275.02973 593.23061,-275.02973 600.69178,-262.06387 600.71331,-259.34308 604.76268,-262.74787 619.20841,-262.23675 619.20841,-262.23675 619.20841,-262.23675 602.75058,-256.12645 607.12468,-254.63256 612.92715,-253.13868 616.80821,-246.39782 616.80821,-246.39782 616.80821,-246.39782 603.17424,-251.71037 601.62061,-249.8167 601.31699,-247.47661 603.53711,-238.02145 603.53711,-238.02145 L 594.78361,-250.20524 C 591.43515,-252.09331 590.84588,-251.65951 588.40122,-251.20832 581.91235,-249.18671 576.71231,-241.2197 576.71231,-241.2197 576.71231,-241.2197 574.11871,-246.10385 580.80661,-253.55578 Z"
     id="path4330"
     inkscape:connector-curvature="0"
     sodipodi:nodetypes="ccsczccccccccccc"
     inkscape:export-filename="/home/yannick/Desktop/phaser3-matter-car-on-curved-terrain/src/assets/img/grass.png"
     inkscape:export-xdpi="90"
     inkscape:export-ydpi="90" />
  <rect
     style="opacity:1;fill:url(#radialGradient4203);fill-opacity:1;stroke:none;stroke-width:1;stroke-linecap:round;stroke-linejoin:round;stroke-miterlimit:4;stroke-dasharray:none;stroke-dashoffset:2.5;stroke-opacity:1"
     id="rect4195"
     width="640"
     height="360"
     x="-76.771614"
     y="-1922.9448"
     inkscape:export-xdpi="90"
     inkscape:export-ydpi="90"
     inkscape:export-filename="/home/yannick/Desktop/phaser3-matter-car-on-curved-terrain/src/assets/img/background.png" />
  <path
     style="fill:none;stroke:#000000;stroke-width:1px;stroke-linecap:butt;stroke-linejoin:miter;stroke-opacity:1"
     d="m 4950.7696,2702.1867 28.1828,-37.577 c 0.064,1.1874 0.5987,2.3429 1.462,3.1607 0.8632,0.8178 2.046,1.2891 3.2351,1.2891 1.1891,0 2.3719,-0.4713 3.2351,-1.2891 0.8633,-0.8178 1.3978,-1.9733 1.462,-3.1607 0.045,-0.8311 -0.1312,-1.6591 -0.3662,-2.4576 -0.235,-0.7985 -0.5297,-1.5795 -0.7319,-2.3869 -0.2022,-0.8075 -0.3103,-1.6535 -0.164,-2.4729 0.1462,-0.8194 0.571,-1.613 1.2621,-2.0768 0.6829,-0.4583 1.5566,-0.5546 2.3719,-0.4457 0.8152,0.1088 1.5915,0.405 2.3667,0.6796 0.7753,0.2746 1.5708,0.5321 2.3928,0.5584 0.411,0.013 0.826,-0.033 1.2169,-0.1605 0.3909,-0.1277 0.7573,-0.3389 1.046,-0.6318 0.2888,-0.293 0.4948,-0.6626 0.6171,-1.0554 0.1223,-0.3927 0.1627,-0.8084 0.1447,-1.2194 -0.036,-0.822 -0.3012,-1.6151 -0.579,-2.3896 -0.2777,-0.7745 -0.5729,-1.5523 -0.6737,-2.3689 -0.05,-0.4083 -0.051,-0.8246 0.024,-1.2291 0.075,-0.4045 0.2276,-0.7972 0.4668,-1.1319 0.2407,-0.3368 0.566,-0.6098 0.9302,-0.8067 0.3641,-0.1968 0.7666,-0.3186 1.1764,-0.3772 0.8196,-0.117 1.6562,0.017 2.4558,0.2313 0.7997,0.2145 1.5761,0.5092 2.3759,0.7234 0.7997,0.2142 1.6364,0.3473 2.4559,0.2292 0.9441,-0.1361 1.825,-0.6065 2.5189,-1.2609 0.6939,-0.6545 1.2068,-1.4864 1.5555,-2.3742 0.6974,-1.7756 0.7448,-3.7304 0.7662,-5.6379 0.021,-1.9076 0.033,-3.8571 0.6666,-5.6564 0.3169,-0.8997 0.7914,-1.7521 1.4494,-2.4426 0.658,-0.6905 1.5057,-1.2136 2.4377,-1.4165 0.7912,-0.1722 1.6168,-0.112 2.4124,0.038 0.7956,0.1504 1.5715,0.3892 2.3593,0.5764 0.7878,0.1872 1.5976,0.3233 2.4051,0.2626 0.8074,-0.061 1.6184,-0.3326 2.2174,-0.8774 0.6054,-0.5507 0.9539,-1.345 1.0735,-2.1546 0.1196,-0.8096 0.026,-1.6375 -0.147,-2.4375 -0.3453,-1.6 -1.0075,-3.1673 -0.9265,-4.8021 0.047,-0.9574 0.3558,-1.897 0.8593,-2.7127 0.5035,-0.8158 1.1993,-1.5081 2.0012,-2.0334 1.6038,-1.0505 3.5998,-1.4118 5.5077,-1.2221 1.9078,0.1896 3.7352,0.901 5.4032,1.8464 1.6679,0.9453 3.1913,2.1228 4.6944,3.313 1.5031,1.1903 2.9967,2.4007 4.6196,3.4215 1.6229,1.0208 3.3891,1.853 5.2715,2.2166 1.8825,0.3635 3.8928,0.2347 5.6255,-0.586 0.8663,-0.4104 1.6553,-0.9903 2.2827,-1.7151 0.6274,-0.7249 1.0907,-1.5955 1.3119,-2.5282 0.3651,-1.5394 0.066,-3.1472 -0.1756,-4.7107 -0.2415,-1.5635 -0.4151,-3.216 0.1756,-4.6836 0.4256,-1.0575 1.2206,-1.9318 2.1183,-2.6342 0.8978,-0.7025 1.9036,-1.2512 2.8881,-1.8257 0.9845,-0.5746 1.9615,-1.1852 2.7711,-1.9876 0.8096,-0.8025 1.448,-1.8194 1.6168,-2.9467 0.1224,-0.8174 -0.01,-1.6534 -0.215,-2.4528 -0.2096,-0.7994 -0.5005,-1.5757 -0.7132,-2.3743 -0.2128,-0.7986 -0.347,-1.633 -0.2342,-2.4517 0.1129,-0.8187 0.4972,-1.625 1.1624,-2.1155 0.6599,-0.4865 1.5282,-0.6174 2.3437,-0.5334 0.8155,0.084 1.5962,0.3635 2.3706,0.6325 0.7744,0.2691 1.5631,0.5322 2.3814,0.5813 0.4092,0.024 0.8236,-0.01 1.219,-0.1138 0.3953,-0.1082 0.7715,-0.2961 1.0795,-0.5666 0.3081,-0.2706 0.5431,-0.6198 0.6991,-0.9991 0.156,-0.3792 0.2344,-0.788 0.2529,-1.1977 0.037,-0.8193 -0.1619,-1.6307 -0.4052,-2.414 -0.2434,-0.7832 -0.5333,-1.5551 -0.6874,-2.3607 -0.1541,-0.8055 -0.165,-1.6616 0.1406,-2.4227 0.3353,-0.8353 1.0392,-1.4969 1.8608,-1.8644 0.8216,-0.3676 1.752,-0.455 2.6446,-0.3398 1.7853,0.2305 3.3679,1.2228 4.8849,2.1919 1.5171,0.969 3.0977,1.9633 4.8824,2.1986 0.8923,0.1177 1.8228,0.034 2.6459,-0.3306 0.8231,-0.3642 1.53,-1.0223 1.8699,-1.8557 0.3093,-0.7583 0.3041,-1.6131 0.155,-2.4183 -0.1491,-0.8053 -0.4347,-1.5776 -0.6758,-2.3603 -0.2411,-0.7826 -0.4401,-1.5923 -0.4074,-2.4105 0.016,-0.4092 0.092,-0.8178 0.2434,-1.1981 0.1518,-0.3802 0.3817,-0.7318 0.6848,-1.0071 0.3027,-0.275 0.674,-0.4699 1.0661,-0.5864 0.3921,-0.1165 0.8047,-0.156 1.2134,-0.1407 0.8174,0.031 1.6101,0.2766 2.3857,0.5364 0.7757,0.2598 1.5535,0.5373 2.3657,0.6348 0.8121,0.098 1.6762,-4e-4 2.3634,-0.4441 0.7033,-0.454 1.1556,-1.2344 1.3323,-2.0527 0.1767,-0.8182 0.1,-1.6734 -0.085,-2.4898 -0.3703,-1.6327 -1.1679,-3.1794 -1.2468,-4.8517 -0.056,-1.1851 0.2614,-2.3736 0.825,-3.4177 0.5637,-1.044 1.367,-1.9477 2.2835,-2.7011 1.8331,-1.5068 4.0785,-2.4044 6.2857,-3.2755 11.0649,-4.367 22.3675,-8.7607 31.5905,-16.2733 4.6115,-3.7563 8.6504,-8.2834 11.4528,-13.5296 2.8024,-5.2462 4.3315,-11.2343 3.928,-17.1683 -0.107,-1.5735 -0.3472,-3.136 -0.4404,-4.7103 -0.093,-1.5744 -0.035,-3.1803 0.4404,-4.684 0.4459,-1.4104 1.2516,-2.6948 2.2622,-3.775 1.0105,-1.0802 2.2227,-1.9608 3.5202,-2.6712 2.5949,-1.4207 5.4988,-2.1581 8.3655,-2.8888 2.8668,-0.7307 5.7687,-1.4828 8.3498,-2.9285 1.2906,-0.7228 2.4925,-1.6183 3.4873,-2.713 0.9948,-1.0947 1.7791,-2.3933 2.1977,-3.812 0.4457,-1.5104 0.4695,-3.1136 0.367,-4.685 -0.1024,-1.5715 -0.3274,-3.1349 -0.367,-4.7092 -0.085,-3.3629 0.6958,-6.744 2.2457,-9.7297 1.5499,-2.9857 3.866,-5.5695 6.665,-7.4355 2.7991,-1.8661 6.075,-3.0102 9.4271,-3.2926 3.3521,-0.2823 6.7733,0.2978 9.845,1.6693 2.4448,-0.052 4.8554,-1.0806 6.5845,-2.8097 1.7292,-1.7292 2.7578,-4.1398 2.8097,-6.5846 0.034,-1.5867 -0.3251,-3.1519 -0.5119,-4.7279 -0.1869,-1.576 -0.1871,-3.2415 0.5119,-4.6663 0.548,-1.117 1.5009,-2.0097 2.6008,-2.5914 1.0998,-0.5817 2.3415,-0.8654 3.5838,-0.9352 2.4844,-0.1396 4.9373,0.5304 7.3252,1.2305 2.3879,0.7 4.7766,1.4249 7.232,1.8285 2.4555,0.4036 4.9526,0.4676 7.441,0.4676 h 197.2792 112.731 9.3943 c 1.617,0 3.2238,-0.2189 4.8028,-0.5671 0.7895,-0.174 1.5907,-0.341 2.3986,-0.312 0.404,0.015 0.8083,0.08 1.187,0.2216 0.3788,0.1413 0.7319,0.3602 1.0058,0.6575 0.2806,0.3046 0.4723,0.6856 0.577,1.0862 0.1048,0.4006 0.1246,0.8207 0.086,1.233 -0.077,0.8246 -0.3804,1.6088 -0.6795,2.3811 -0.2992,0.7722 -0.6001,1.5579 -0.671,2.383 -0.035,0.4126 -0.012,0.8326 0.097,1.2321 0.1089,0.3995 0.3055,0.7782 0.5903,1.0788 0.2839,0.2996 0.6503,0.5158 1.0422,0.6453 0.392,0.1294 0.8092,0.174 1.2216,0.1576 0.8249,-0.033 1.6199,-0.3046 2.3941,-0.5911 0.7743,-0.2866 1.5511,-0.5931 2.3695,-0.7012 0.4093,-0.054 0.8272,-0.057 1.2332,0.017 0.406,0.075 0.8001,0.229 1.1337,0.472 0.3341,0.2434 0.6024,0.5722 0.7927,0.9391 0.1904,0.3669 0.3041,0.7712 0.3543,1.1815 0.1003,0.8206 -0.051,1.6524 -0.2753,2.4481 -0.2245,0.7956 -0.5224,1.5698 -0.7258,2.371 -0.2034,0.8013 -0.3106,1.6445 -0.1459,2.4546 0.1751,0.8612 0.6573,1.6478 1.3084,2.238 0.6512,0.5902 1.465,0.9883 2.3187,1.1968 1.7073,0.4172 3.5174,0.085 5.1729,-0.5052 1.6556,-0.5901 3.2104,-1.4312 4.8452,-2.0765 1.6348,-0.6453 3.4027,-1.0967 5.1433,-0.8531 1.1582,0.1621 2.2634,0.63 3.2314,1.2863 0.9679,0.6563 1.8023,1.4975 2.5146,2.425 1.4247,1.855 2.3568,4.0311 3.3212,6.162 0.9644,2.1309 1.9982,4.2757 3.5786,5.9999 0.7902,0.8621 1.7144,1.6104 2.7596,2.1352 1.0451,0.5247 2.2143,0.821 3.3831,0.7801 1.6511,-0.058 3.2022,-0.7697 4.8199,-1.105 0.8089,-0.1676 1.649,-0.2403 2.4607,-0.087 0.8118,0.153 1.5963,0.5482 2.1136,1.1922 0.5054,0.6292 0.724,1.4526 0.7412,2.2595 0.017,0.8069 -0.1529,1.6058 -0.3544,2.3873 -0.2014,0.7816 -0.4358,1.5574 -0.5517,2.3562 -0.116,0.7987 -0.1086,1.6319 0.1649,2.3912 0.2914,0.8087 0.878,1.4969 1.5975,1.9673 0.7195,0.4704 1.5661,0.7296 2.4221,0.8082 1.7121,0.1571 3.4113,-0.3884 4.9891,-1.0714 1.5778,-0.683 3.1019,-1.5139 4.7565,-1.9809 0.8273,-0.2335 1.6859,-0.3738 2.5451,-0.3487 0.8593,0.025 1.7205,0.2196 2.4782,0.6255 1.1952,0.6403 2.0791,1.7889 2.5247,3.0695 0.4456,1.2806 0.474,2.6834 0.2202,4.0153 -0.5075,2.664 -2.0753,4.9829 -3.5419,7.264 -1.4666,2.281 -2.9047,4.7219 -3.0955,7.427 -0.096,1.3526 0.141,2.7466 0.8048,3.9289 0.6638,1.1823 1.776,2.1345 3.0877,2.4781 0.7734,0.2026 1.5889,0.1933 2.3818,0.091 0.7929,-0.1023 1.5707,-0.2953 2.3536,-0.4575 0.7828,-0.1621 1.5782,-0.2941 2.3773,-0.2717 0.7992,0.023 1.6081,0.2075 2.2816,0.6382 0.7324,0.4684 1.2702,1.2109 1.5611,2.0302 0.291,0.8193 0.3447,1.7115 0.2329,2.5737 -0.2234,1.7244 -1.078,3.2931 -1.9077,4.8212 -0.8297,1.5281 -1.6658,3.1112 -1.8461,4.8407 -0.09,0.8647 -0.01,1.7561 0.3128,2.5639 0.3213,0.8078 0.8921,1.5275 1.647,1.9588 0.6941,0.3966 1.5119,0.5365 2.3111,0.5209 0.7992,-0.016 1.5876,-0.179 2.3673,-0.3556 0.7796,-0.1765 1.5594,-0.3674 2.3555,-0.4394 0.7962,-0.072 1.6172,-0.021 2.3603,0.2741 0.7937,0.3149 1.4679,0.9006 1.9402,1.6119 0.4723,0.7114 0.748,1.5439 0.8529,2.3913 0.2097,1.6948 -0.2491,3.4036 -0.8677,4.9954 -0.6187,1.5917 -1.402,3.1227 -1.8877,4.76 -0.4857,1.6372 -0.6554,3.4378 -0.038,5.0299 0.4075,1.0503 1.1362,1.9519 1.9737,2.7054 0.8375,0.7535 1.7861,1.3713 2.73,1.9864 0.9439,0.6151 1.8918,1.2341 2.7274,1.9898 0.8356,0.7556 1.561,1.6602 1.9632,2.7126 0.5637,1.4751 0.4544,3.1146 0.2525,4.6808 -0.2019,1.5662 -0.4883,3.1521 -0.2525,4.7135 0.3452,2.2863 1.7941,4.2882 3.57,5.7689 1.776,1.4806 3.8753,2.5107 5.9466,3.5382 2.0714,1.0276 4.1615,2.0831 5.9036,3.6034 1.7421,1.5203 3.1265,3.5785 3.3683,5.878 0.1842,1.752 -0.3003,3.5092 -0.96,5.1426 -0.6597,1.6335 -1.4985,3.194 -2.077,4.8579 -0.5784,1.664 -0.888,3.4833 -0.4478,5.189 0.2202,0.8529 0.6295,1.6633 1.2285,2.309 0.5991,0.6458 1.3919,1.1209 2.2563,1.29 0.8115,0.1588 1.654,0.048 2.4551,-0.1571 0.8011,-0.2051 1.5755,-0.5028 2.3716,-0.7262 0.7962,-0.2234 1.6288,-0.3724 2.4493,-0.2698 0.4103,0.051 0.8143,0.1663 1.1808,0.3577 0.3665,0.1915 0.6947,0.4607 0.9374,0.7954 0.2423,0.3342 0.3958,0.7284 0.47,1.1344 0.074,0.4061 0.07,0.824 0.016,1.2331 -0.1085,0.8183 -0.415,1.595 -0.7011,2.3693 -0.2862,0.7743 -0.5572,1.5694 -0.5895,2.3943 -0.016,0.4124 0.029,0.8295 0.1585,1.2213 0.1297,0.3919 0.3461,0.758 0.6458,1.0418 0.3007,0.2847 0.6794,0.4811 1.0789,0.59 0.3995,0.1089 0.8195,0.1324 1.232,0.097 0.8251,-0.071 1.6108,-0.3716 2.3831,-0.6706 0.7723,-0.299 1.5564,-0.6024 2.381,-0.6791 0.4123,-0.038 0.8323,-0.019 1.233,0.086 0.4006,0.1047 0.7816,0.2963 1.0863,0.5767 0.3033,0.2792 0.5253,0.6412 0.6615,1.0304 0.1361,0.3891 0.1883,0.8048 0.1791,1.217 -0.018,0.8243 -0.2772,1.6228 -0.557,2.3984 -0.2797,0.7756 -0.5853,1.5505 -0.7041,2.3664 -0.1188,0.8159 -0.033,1.6935 0.4205,2.3821 0.2292,0.348 0.545,0.6358 0.9032,0.8486 0.3582,0.2129 0.7581,0.3518 1.1681,0.4262 0.8199,0.1488 1.6673,0.041 2.4755,-0.1621 0.8082,-0.2032 1.5894,-0.5002 2.3881,-0.7379 0.7987,-0.2377 1.6271,-0.4171 2.4593,-0.3748 1.1457,0.058 2.2436,0.5394 3.1603,1.2291 0.9166,0.6897 1.6646,1.5808 2.318,2.5236 1.307,1.8857 2.2851,4.0278 3.916,5.6415 1.1455,1.1334 2.5757,1.959 4.0967,2.4911 1.521,0.5322 3.1328,0.7781 4.7433,0.8317 3.221,0.1071 6.4171,-0.5242 9.5721,-1.1819 6.3099,-1.3155 12.7193,-2.1409 19.1649,-2.1409 h 281.8275 122.1252 9.3943 c 1.6018,0 3.1964,-0.1828 4.7712,-0.4752 0.7874,-0.1463 1.5829,-0.2867 2.3834,-0.2639 0.8006,0.023 1.6234,0.2276 2.2396,0.7391 0.6319,0.5245 0.9868,1.3299 1.0904,2.1445 0.1037,0.8146 -0.024,1.6425 -0.2239,2.4388 -0.2003,0.7964 -0.4734,1.5732 -0.6694,2.3707 -0.1959,0.7975 -0.3141,1.6275 -0.1971,2.4403 0.1955,1.3581 1.0584,2.5763 2.2033,3.3326 1.1448,0.7564 2.5474,1.0725 3.9188,1.0274 1.3714,-0.045 2.7149,-0.4361 3.9665,-0.9985 1.2515,-0.5624 2.419,-1.2944 3.5633,-2.0514 2.2887,-1.5142 4.5793,-3.1738 7.2532,-3.7912 1.337,-0.3087 2.7559,-0.3394 4.0696,0.057 1.3138,0.396 2.5133,1.2413 3.2081,2.4245 0.4044,0.6886 0.6312,1.4724 0.7257,2.2654 0.095,0.793 0.06,1.5968 -0.033,2.39 -0.1858,1.5864 -0.604,3.1441 -0.6929,4.7388 -0.1369,2.4545 0.5291,4.9323 1.7878,7.0439 1.2587,2.1117 3.096,3.859 5.2153,5.1047 4.2387,2.4914 9.4706,2.9214 14.2908,1.9524 4.8202,-0.9691 9.2867,-3.2381 13.445,-5.8614 4.1583,-2.6234 8.0715,-5.6202 12.2323,-8.2396 1.4986,-0.9435 3.0874,-1.8579 4.8466,-2.0601 0.8797,-0.1011 1.7901,-0.015 2.6073,0.326 0.8172,0.3409 1.5352,0.9468 1.9404,1.7341 0.3667,0.7126 0.4657,1.5387 0.4147,2.3385 -0.051,0.7998 -0.2443,1.5828 -0.4351,2.3611 -0.1908,0.7784 -0.3807,1.5625 -0.4247,2.3627 -0.044,0.8002 0.066,1.626 0.4451,2.332 0.4156,0.774 1.1391,1.3614 1.9553,1.6864 0.8162,0.3249 1.7195,0.3983 2.5916,0.2927 1.7443,-0.2112 3.3219,-1.1024 4.8464,-1.9757 1.5245,-0.8734 3.1016,-1.7652 4.8457,-1.9776 0.8721,-0.1063 1.7754,-0.034 2.592,0.2903 0.8165,0.3241 1.5407,0.9106 1.9575,1.6839 0.3801,0.7054 0.4915,1.5308 0.4487,2.331 -0.043,0.8002 -0.2318,1.5845 -0.4221,2.3629 -0.1903,0.7783 -0.3837,1.5611 -0.4356,2.3608 -0.052,0.7996 0.045,1.6256 0.409,2.3395 0.403,0.7904 1.1195,1.4008 1.9368,1.7458 0.8174,0.345 1.7295,0.4348 2.6111,0.3352 1.7631,-0.1994 3.3552,-1.1192 4.8463,-2.081 3.1604,-2.0385 6.2844,-4.4216 9.9933,-5.044 1.8544,-0.3112 3.826,-0.1411 5.4972,0.7209 0.8355,0.431 1.5872,1.0314 2.1663,1.7721 0.5791,0.7407 0.9826,1.6227 1.1317,2.551 0.2541,1.5818 -0.2263,3.1749 -0.5277,4.7485 -0.1506,0.7867 -0.2573,1.5884 -0.2042,2.3877 0.053,0.7993 0.274,1.6008 0.7319,2.2581 0.489,0.702 1.2314,1.2088 2.0418,1.4828 0.8105,0.274 1.6862,0.3242 2.5357,0.2228 1.699,-0.2028 3.2644,-0.9861 4.8168,-1.7056 8.8307,-4.0928 18.4926,-6.4675 28.225,-6.5841 9.7323,-0.1166 19.5256,2.0548 28.1405,6.5841 6.2214,3.2709 11.9448,7.7916 18.7885,9.3942 4.5906,1.0749 9.3818,0.7537 14.0766,0.3197 4.6947,-0.4339 9.4369,-0.9738 14.1061,-0.3197 4.9186,0.6891 9.5486,2.6742 14.1038,4.6535 4.5553,1.9793 9.1691,3.9917 14.079,4.7408 6.2439,0.9527 12.5885,-0.1879 18.8529,-0.9953 6.2643,-0.8074 12.8205,-1.2502 18.7241,0.9953 3.2896,1.2512 6.2135,3.2798 9.1942,5.1514 2.9806,1.8715 6.1283,3.6314 9.5943,4.2428 4.3755,0.7719 8.8788,-0.3592 12.9919,-2.0393 4.1131,-1.6802 7.9895,-3.9096 12.1414,-5.4914 4.1519,-1.5818 8.7343,-2.4984 13.0436,-1.4165 2.1546,0.541 4.2003,1.5884 5.7939,3.1361 1.5936,1.5478 2.7154,3.6079 3.0004,5.8111 0.2018,1.5603 -0.01,3.14 -0.1665,4.7055 -0.1564,1.5655 -0.2539,3.1727 0.1665,4.6888 0.4636,1.6717 1.5514,3.1417 2.9423,4.1785 1.391,1.0368 3.0717,1.6527 4.7902,1.8901 3.437,0.4748 6.9125,-0.5273 10.1085,-1.878 3.1959,-1.3507 6.2471,-3.0621 9.5501,-4.1244 1.6515,-0.5312 3.3653,-0.897 5.0992,-0.9527 1.734,-0.056 3.4911,0.2055 5.0867,0.8865 2.0881,0.8912 3.8246,2.4649 5.2449,4.2361 1.4202,1.7712 2.555,3.7495 3.7336,5.6899 1.1785,1.9405 2.4186,3.8668 4.0108,5.4851 1.5923,1.6184 3.5744,2.925 5.7992,3.3774 1.5373,0.3126 3.1245,0.2225 4.691,0.1374 1.5664,-0.085 3.1346,-0.1374 4.7033,-0.1374 h 9.3942 46.9713 18.7885 c 1.5674,0 3.1344,-0.039 4.7005,-0.1026 1.5661,-0.063 3.1438,-0.1312 4.6937,0.1026 3.492,0.5267 6.5411,2.5728 9.4362,4.5952 2.895,2.0223 5.8855,4.1263 9.3523,4.799 3.4654,0.6724 7.0593,-0.1679 10.3437,-1.4616 3.2845,-1.2937 6.3792,-3.0377 9.6803,-4.2883 3.301,-1.2507 6.9287,-1.9973 10.3651,-1.1897 1.7182,0.4038 3.3578,1.2019 4.6555,2.3982 1.2977,1.1964 2.239,2.8009 2.5324,4.5414 0.2621,1.5546 0.012,3.1432 -0.1794,4.7081 -0.1909,1.565 -0.3165,3.1897 0.1794,4.6862 0.5827,1.7585 2.0075,3.1757 3.6964,3.9369 1.6889,0.7612 3.6172,0.9017 5.4449,0.5996 3.6555,-0.6044 6.7928,-2.8531 9.8124,-5.0001 3.0196,-2.147 6.2359,-4.3208 9.9178,-4.7346 1.8409,-0.2069 3.7629,0.06 5.3875,0.9501 1.6246,0.8903 2.9207,2.4387 3.318,4.2481 0.3395,1.546 0.026,3.1496 -0.2164,4.7139 -0.1211,0.7821 -0.2243,1.5702 -0.2178,2.3616 0.01,0.7914 0.1254,1.59 0.4342,2.3187 0.5238,1.2363 1.5823,2.2091 2.8108,2.7511 1.2285,0.5419 2.6145,0.6729 3.9469,0.5067 2.6647,-0.3322 5.0394,-1.784 7.3175,-3.2059 2.2781,-1.4218 4.6451,-2.882 7.3073,-3.2347 1.331,-0.1764 2.7176,-0.059 3.9522,0.469 1.2346,0.5278 2.3054,1.4857 2.8481,2.7138 0.32,0.7241 0.4521,1.5209 0.4695,2.3124 0.017,0.7915 -0.077,1.5811 -0.1943,2.3641 -0.2345,1.5659 -0.561,3.1605 -0.2752,4.7178 0.241,1.3135 0.9193,2.5321 1.8567,3.4831 0.9375,0.9511 2.1264,1.6394 3.3965,2.0519 2.5403,0.8251 5.3275,0.548 7.8879,-0.2122 2.5604,-0.7602 4.9551,-1.9804 7.3952,-3.0664 2.4402,-1.086 4.9833,-2.0529 7.6464,-2.2564 3.5043,-0.2678 7.0323,0.8271 10.0099,2.6941 2.9776,1.8669 5.4377,4.4727 7.494,7.3229 4.1125,5.7004 6.6814,12.3841 10.6789,18.1657 2.1324,3.0841 4.7174,5.9378 7.9667,7.8089 1.6247,0.9355 3.4051,1.6148 5.2557,1.9148 1.8506,0.2999 3.7721,0.2148 5.5661,-0.3294 1.648,-0.4999 3.1811,-1.3791 4.8759,-1.6854 0.8473,-0.1531 1.7354,-0.1559 2.555,0.1082 0.8196,0.264 1.5654,0.8135 1.9633,1.5772 0.3786,0.7266 0.4203,1.5893 0.2914,2.3984 -0.1288,0.8091 -0.4168,1.5827 -0.6716,2.3614 -0.2548,0.7786 -0.4798,1.581 -0.4754,2.4003 0,0.4097 0.063,0.8209 0.2018,1.2063 0.139,0.3853 0.358,0.7444 0.6538,1.0278 0.2959,0.2834 0.664,0.4866 1.0548,0.6096 0.3908,0.1231 0.804,0.1675 1.2135,0.1553 0.819,-0.024 1.6138,-0.2709 2.3896,-0.5344 0.7759,-0.2635 1.5526,-0.548 2.3651,-0.6535 0.8126,-0.1054 1.6794,-0.016 2.3713,0.423 0.7077,0.4491 1.1654,1.2285 1.3452,2.0471 0.1799,0.8187 0.104,1.6754 -0.082,2.4928 -0.3711,1.6348 -1.1752,3.1804 -1.2637,4.8544 -0.097,1.8373 0.7187,3.6675 2.0352,4.9528 1.3165,1.2852 3.0958,2.0449 4.9196,2.2869 1.8239,0.242 3.6908,-0.012 5.448,-0.557 1.7573,-0.545 3.4138,-1.3751 5.0061,-2.2968 3.1846,-1.8434 6.1817,-4.0834 9.643,-5.3323 1.7306,-0.6244 3.573,-0.9903 5.4099,-0.8871 1.837,0.1032 3.67,0.695 5.1152,1.8335 1.7865,1.4074 2.8511,3.5088 4.127,5.3914 0.6379,0.9414 1.3463,1.8472 2.2184,2.5769 0.8722,0.7297 1.9212,1.2785 3.0488,1.4259 0.8052,0.1052 1.6245,0 2.4185,-0.1656 0.794,-0.17 1.5719,-0.4089 2.3647,-0.5849 0.7927,-0.1759 1.6094,-0.2888 2.4167,-0.2016 0.8074,0.087 1.6098,0.3885 2.1944,0.9521 0.5872,0.5661 0.918,1.3622 1.028,2.1704 0.1099,0.8082 0.013,1.6319 -0.1572,2.4296 -0.3409,1.5953 -0.9795,3.1666 -0.8708,4.7943 0.066,0.9869 0.4125,1.9492 0.9636,2.7706 0.551,0.8214 1.303,1.5023 2.1583,1.9991 1.7106,0.9934 3.7961,1.229 5.7459,0.8949 1.9497,-0.3341 3.7755,-1.2056 5.4264,-2.2954 1.6508,-1.0899 3.1439,-2.3985 4.6374,-3.6956 1.4935,-1.2972 2.9999,-2.5925 4.6709,-3.6512 1.671,-1.0587 3.5242,-1.8798 5.4851,-2.1406 1.9609,-0.2608 4.0393,0.074 5.6914,1.1619 0.826,0.544 1.5358,1.2703 2.0318,2.126 0.496,0.8558 0.7744,1.8413 0.7662,2.8303 -0.014,1.6742 -0.8216,3.2273 -1.2121,4.8554 -0.1953,0.814 -0.2857,1.6683 -0.117,2.4882 0.1687,0.82 0.6205,1.6048 1.3291,2.0506 0.698,0.4391 1.5751,0.5124 2.3902,0.387 0.8151,-0.1254 1.5889,-0.4327 2.3653,-0.711 0.7763,-0.2783 1.577,-0.5321 2.4017,-0.5429 0.4123,-0.01 0.8276,0.051 1.2152,0.1921 0.3875,0.1408 0.7468,0.3676 1.0218,0.6748 0.2767,0.3092 0.463,0.6939 0.5617,1.0969 0.099,0.403 0.112,0.8241 0.068,1.2367 -0.089,0.8251 -0.4026,1.6067 -0.7067,2.3788 -0.3042,0.7721 -0.6051,1.5608 -0.6663,2.3884 -0.031,0.4138 4e-4,0.8346 0.1192,1.2321 0.1189,0.3976 0.3278,0.7715 0.6246,1.0614 0.2974,0.2905 0.677,0.4908 1.078,0.6006 0.401,0.1097 0.8232,0.1312 1.2371,0.092 0.8279,-0.078 1.6125,-0.3927 2.3841,-0.7028 0.7715,-0.3101 1.5571,-0.6227 2.3853,-0.6974 0.4141,-0.037 0.8362,-0.014 1.2365,0.099 0.4003,0.1124 0.7784,0.3156 1.0733,0.6087 0.2947,0.2929 0.5002,0.6696 0.6149,1.069 0.1147,0.3994 0.141,0.8211 0.1059,1.2352 -0.07,0.8281 -0.3795,1.6147 -0.688,2.3864 -0.3086,0.7716 -0.6231,1.5552 -0.7051,2.3822 -0.041,0.4136 -0.022,0.8354 0.084,1.2372 0.1063,0.4017 0.3021,0.783 0.5884,1.0842 0.2852,0.3 0.6544,0.5145 1.0488,0.6402 0.3943,0.1257 0.8134,0.1647 1.2267,0.142 0.8266,-0.045 1.6189,-0.3316 2.392,-0.6276 0.7731,-0.2961 1.5517,-0.6077 2.3735,-0.7082 0.4108,-0.05 0.8305,-0.046 1.2354,0.039 0.405,0.086 0.7952,0.2549 1.1178,0.5143 0.3209,0.258 0.5693,0.601 0.7361,0.9775 0.1667,0.3765 0.2534,0.7859 0.2772,1.1969 0.048,0.8222 -0.1522,1.6386 -0.4018,2.4234 -0.2496,0.7848 -0.5513,1.5559 -0.7181,2.3624 -0.1667,0.8065 -0.1913,1.6663 0.1066,2.4341 0.3265,0.8415 1.0284,1.5112 1.8509,1.8831 0.8224,0.372 1.756,0.4606 2.6511,0.3439 1.7902,-0.2334 3.373,-1.2377 4.8892,-2.2176 1.5162,-0.98 3.0976,-1.9858 4.8873,-2.2229 0.8948,-0.1186 1.8285,-0.032 2.6522,0.337 0.8236,0.3694 1.5278,1.0363 1.8578,1.8765 0.3007,0.7656 0.2805,1.6244 0.1177,2.4306 -0.1629,0.8062 -0.4612,1.5776 -0.7091,2.3618 -0.2478,0.7843 -0.4476,1.5991 -0.4034,2.4205 0.022,0.4106 0.1063,0.8199 0.2698,1.1972 0.1635,0.3774 0.4079,0.7223 0.725,0.9841 0.3181,0.2626 0.704,0.4375 1.106,0.5299 0.402,0.093 0.82,0.1043 1.2303,0.062 0.8207,-0.085 1.6022,-0.3818 2.3753,-0.6696 0.7732,-0.2878 1.5614,-0.5719 2.3844,-0.6292 0.4115,-0.029 0.8293,8e-4 1.2261,0.1134 0.3968,0.1126 0.7725,0.3103 1.0722,0.5937 0.2934,0.2775 0.5088,0.6319 0.6478,1.0111 0.1389,0.3792 0.2034,0.7831 0.2176,1.1867 0.028,0.8072 -0.136,1.6077 -0.3073,2.397 -0.3427,1.5786 -0.5581,3.1841 -0.5581,4.7995 v 18.7885"
     id="path5508"
     inkscape:connector-curvature="0"
     inkscape:path-effect="#path-effect5510"
     inkscape:original-d="m 4950.7696,2702.1867 c 9.3943,-12.5257 18.7885,-25.0513 28.1828,-37.577 3.1314,0 7.18,2.2143 9.3942,0 2.2143,-2.2142 -2.2142,-7.18 0,-9.3942 2.2143,-2.2143 7.1801,2.2142 9.3943,0 2.2142,-2.2143 -2.2142,-7.18 0,-9.3943 2.2142,-2.2142 7.18,2.2143 9.3942,0 19.4371,-19.437 -29.7023,0.7598 9.3943,-18.7885 2.8008,-1.4004 7.18,2.2143 9.3942,0 2.2143,-2.2142 -2.2142,-7.18 0,-9.3942 2.2606,-2.2606 35.3165,2.2605 37.577,0 2.2143,-2.2143 -1.4004,-6.5935 0,-9.3943 1.9805,-3.961 7.4138,-5.4333 9.3943,-9.3942 1.4004,-2.8009 -2.2143,-7.18 0,-9.3943 2.2142,-2.2142 7.18,2.2143 9.3942,0 2.2143,-2.2142 -2.2142,-7.18 0,-9.3942 4.4285,-4.4285 14.3601,4.4285 18.7885,0 2.2143,-2.2143 -2.2142,-7.18 0,-9.3943 2.2143,-2.2142 7.18,2.2143 9.3943,0 2.2142,-2.2142 -1.4004,-6.5934 0,-9.3942 1.9805,-3.961 6.2628,-6.2629 9.3942,-9.3943 7.5441,-7.544 41.5453,-38.8323 46.9713,-46.9712 1.737,-2.6055 -2.2143,-7.18 0,-9.3943 7.9836,-7.9836 20.1992,-10.8049 28.1827,-18.7885 2.2143,-2.2142 -2.2142,-7.18 0,-9.3942 11.4421,-11.4421 20.9888,-4.4005 28.1828,-18.7885 0,-25.0514 -3.1314,3.1314 9.3942,-9.3943 2.2143,-2.2142 -2.2142,-7.18 0,-9.3942 0.3022,-0.3022 25.9044,0 28.1828,0 65.7597,0 131.5195,0 197.2792,0 37.577,0 75.154,0 112.731,0 3.1315,0 6.2629,0 9.3943,0 3.1314,0 7.18,-2.2143 9.3942,0 2.2143,2.2142 -2.2142,7.18 0,9.3942 2.2143,2.2143 7.18,-2.2142 9.3943,0 2.2142,2.2143 -2.2143,7.18 0,9.3943 4.4285,4.4285 13.1868,-2.8009 18.7885,0 7.9219,3.9609 10.8666,14.8275 18.7885,18.7885 2.8008,1.4004 7.18,-2.2143 9.3942,0 2.2143,2.2142 -2.8008,7.9938 0,9.3942 5.6017,2.8008 14.36,-4.4285 18.7885,0 4.6972,4.6971 -4.6971,23.4856 0,28.1828 2.2143,2.2142 7.18,-2.2143 9.3943,0 4.4285,4.4285 -4.4285,14.36 0,18.7885 2.2142,2.2142 7.18,-2.2143 9.3942,0 4.4285,4.4285 -2.8008,13.1868 0,18.7885 1.9805,3.9609 7.4138,5.4332 9.3943,9.3942 1.4004,2.8008 -1.4004,6.5934 0,9.3943 3.9609,7.9219 14.8275,10.8665 18.7885,18.7885 2.8008,5.6016 -4.4285,14.36 0,18.7885 2.2142,2.2142 7.18,-2.2143 9.3942,0 2.2143,2.2142 -2.2142,7.18 0,9.3942 2.2143,2.2143 7.18,-2.2142 9.3943,0 2.2142,2.2143 -2.2143,7.18 0,9.3943 2.2142,2.2142 6.5934,-1.4005 9.3942,0 3.961,1.9804 5.4333,7.4137 9.3943,9.3942 2.4701,1.2351 32.6645,0 37.577,0 93.9425,0 187.885,0 281.8275,0 40.7084,0 81.4168,0 122.1252,0 3.1314,0 6.2629,0 9.3943,0 3.1314,0 7.18,-2.2142 9.3942,0 2.2143,2.2143 -2.2142,7.18 0,9.3943 4.6971,4.6971 23.4856,-4.6972 28.1828,0 2.2142,2.2142 -2.2143,7.18 0,9.3942 0.4257,0.4258 42.5419,0 46.9712,0 3.1314,0 7.18,-2.2142 9.3943,0 2.2142,2.2143 -2.2143,7.18 0,9.3943 4.4285,4.4285 14.36,-4.4285 18.7885,0 2.2142,2.2142 -2.2143,7.18 0,9.3942 2.2142,2.2143 6.2628,0 9.3942,0 6.2629,0 13.1869,-2.8008 18.7885,0 2.8008,1.4004 -2.2142,7.18 0,9.3943 2.2143,2.2142 6.2629,0 9.3943,0 14.4896,0 45.3812,-2.1969 56.3655,0 6.8661,1.3732 11.9955,7.696 18.7885,9.3942 9.1137,2.2784 19.069,-2.2784 28.1827,0 9.6068,2.4017 18.576,6.9926 28.1828,9.3943 11.7888,2.9472 25.7881,-2.9473 37.577,0 6.793,1.6982 12.1457,7.18 18.7885,9.3942 7.489,2.4964 44.6991,-2.2721 46.9712,0 2.2143,2.2143 -2.2142,7.18 0,9.3943 2.5705,2.5704 32.4808,-2.5482 37.577,0 7.9219,3.9609 10.8666,14.8275 18.7885,18.7885 2.8008,1.4004 6.2628,0 9.3943,0 3.1314,0 6.2628,0 9.3942,0 15.6571,0 31.3142,0 46.9713,0 6.2628,0 12.5256,0 18.7885,0 3.1314,0 6.5934,-1.4005 9.3942,0 23.217,11.6085 -3.2427,9.3942 18.7885,9.3942 5.891,0 36.4166,-1.1604 37.577,0 2.2143,2.2143 -2.2142,7.18 0,9.3943 2.2606,2.2605 35.3165,-2.2606 37.577,0 2.2143,2.2142 -2.2142,7.18 0,9.3942 4.6971,4.6971 23.4856,-4.6971 28.1828,0 2.2142,2.2143 -2.2143,7.18 0,9.3943 1.9205,1.9205 24.458,-1.8624 28.1827,0 8.3265,4.1632 19.631,22.4816 28.1828,28.1827 5.826,3.8841 12.1457,7.18 18.7885,9.3943 2.9707,0.9902 7.18,-2.2143 9.3942,0 2.2143,2.2142 -2.2142,7.18 0,9.3942 2.2143,2.2143 7.18,-2.2142 9.3943,0 2.2142,2.2143 -2.2143,7.18 0,9.3943 2.5704,2.5704 32.4807,-2.5482 37.577,0 3.9609,1.9804 5.4332,7.4137 9.3942,9.3942 2.8008,1.4004 7.18,-2.2142 9.3943,0 2.2142,2.2143 -2.2143,7.18 0,9.3943 2.2605,2.2605 35.3164,-2.2606 37.577,0 2.2142,2.2142 -2.2143,7.18 0,9.3942 2.2142,2.2143 7.18,-2.2142 9.3942,0 2.2143,2.2143 -2.2142,7.18 0,9.3943 2.2143,2.2142 7.18,-2.2143 9.3943,0 2.2142,2.2142 -2.2143,7.18 0,9.3942 2.2142,2.2143 7.18,-2.2142 9.3942,0 2.2143,2.2143 -2.2142,7.18 0,9.3943 4.4285,4.4284 14.36,-4.4285 18.7885,0 2.2143,2.2142 -2.2142,7.18 0,9.3942 2.2143,2.2143 7.18,-2.2142 9.3943,0 2.2142,2.2143 0,6.2628 0,9.3943 0,6.2628 0,12.5256 0,18.7885" />
</svg>
